<svg width="20" height="20" viewBox="0 0 20 20" fill="none" xmlns="http://www.w3.org/2000/svg">
<path d="M18.125 18.5713H1.875C0.8375 18.5713 0 17.6142 0 16.4285V3.57132C0 2.38561 0.8375 1.42847 1.875 1.42847H18.125C19.1625 1.42847 20 2.38561 20 3.57132V16.4285C20 17.6142 19.1625 18.5713 18.125 18.5713ZM1.875 2.85704C1.525 2.85704 1.25 3.17132 1.25 3.57132V16.4285C1.25 16.8285 1.525 17.1428 1.875 17.1428H18.125C18.475 17.1428 18.75 16.8285 18.75 16.4285V3.57132C18.75 3.17132 18.475 2.85704 18.125 2.85704H1.875Z" fill="#0095D0"/>
<path d="M10 12.8C9.12503 12.8 8.32503 12.4 7.72503 11.6714L1.16253 3.69996C0.925026 3.41425 0.937526 2.9571 1.18753 2.68567C1.43753 2.41425 1.83753 2.42853 2.07503 2.71425L8.63753 10.6857C9.35003 11.5571 10.65 11.5571 11.3625 10.6857L17.925 2.72853C18.1625 2.44282 18.5625 2.42853 18.8125 2.69996C19.0625 2.97139 19.075 3.42853 18.8375 3.71425L12.275 11.6857C11.675 12.4142 10.875 12.8142 10 12.8142V12.8Z" fill="#0095D0"/>
</svg>
