<svg width="23" height="23" viewBox="0 0 23 23" fill="none" xmlns="http://www.w3.org/2000/svg">
<path d="M6.22152 2.15625C5.84561 2.15625 5.47473 2.29137 5.16567 2.53791L5.12111 2.56019L5.09883 2.58319L2.85274 4.89684L2.87502 4.91841C2.54545 5.21766 2.31194 5.60786 2.20397 6.03972C2.09601 6.47159 2.11842 6.92577 2.26839 7.34491C2.27127 7.35066 2.26552 7.36144 2.26839 7.36719C2.87789 9.11087 4.43614 12.4775 7.47933 15.5207C10.534 18.5754 13.9452 20.0718 15.6328 20.7316H15.6551C16.078 20.8714 16.53 20.8994 16.9669 20.8127C17.4038 20.726 17.8109 20.5278 18.1485 20.2371L20.4168 17.9687C21.012 17.3736 21.012 16.3401 20.4168 15.7449L17.4973 12.8254L17.4743 12.7801C16.8791 12.185 15.824 12.185 15.2282 12.7801L13.7907 14.2176C12.7119 13.6993 11.7196 13.0176 10.8488 12.1965C9.67224 11.0731 9.07136 9.78147 8.84999 9.27619L10.2875 7.83869C10.8912 7.23494 10.902 6.23012 10.2645 5.63787L10.2868 5.61487L10.2199 5.54803L7.34492 2.58319L7.32264 2.56091L7.27736 2.53791C6.97905 2.29432 6.60662 2.1597 6.22152 2.15625ZM6.22152 3.59375C6.28027 3.59716 6.33597 3.62107 6.37892 3.66131L9.25392 6.60316L9.32149 6.67072C9.31574 6.66497 9.36317 6.74116 9.2762 6.82812L7.47933 8.625L7.14224 8.93981L7.30036 9.38831C7.30036 9.38831 8.12549 11.5985 9.86055 13.2523L10.018 13.3867C11.6876 14.9112 13.6563 15.7449 13.6563 15.7449L14.1055 15.9476L16.2395 13.8129C16.3631 13.69 16.3401 13.69 16.4637 13.8129L19.4063 16.7569C19.5299 16.8798 19.5299 16.8353 19.4063 16.9582L17.2047 19.1597C16.8741 19.4436 16.5226 19.5026 16.105 19.3624C14.4764 18.722 11.3117 17.3319 8.48989 14.5108C5.6458 11.666 4.16086 8.44028 3.61677 6.87412C3.5068 6.58159 3.58514 6.14962 3.84102 5.93041L3.88558 5.88512L6.06483 3.66203C6.1073 3.62183 6.16245 3.59769 6.2208 3.59375H6.22152Z" fill="#0095D0"/>
</svg>
